<mxfile host="app.diagrams.net" modified="2024-04-19T09:11:01.830Z" agent="Mozilla/5.0 (Windows NT 10.0; Win64; x64; rv:124.0) Gecko/20100101 Firefox/124.0" etag="_SSsTcEblfz3mFu-tKg_" version="24.2.5" type="github">
  <diagram name="Page-1" id="QU1jY9Tkd8GwuoRYvhUv">
    <mxGraphModel dx="794" dy="386" grid="1" gridSize="10" guides="1" tooltips="1" connect="1" arrows="1" fold="1" page="1" pageScale="1" pageWidth="827" pageHeight="1169" math="0" shadow="0">
      <root>
        <mxCell id="0" />
        <mxCell id="1" parent="0" />
        <mxCell id="j6DFhhQBlQ9trEZJzmF2-1" value="Réalisation du site de réservation Billets pour les Jeux Olympiques " style="rounded=0;whiteSpace=wrap;html=1;align=center;verticalAlign=middle;fontSize=14;fontFamily=Verdana;spacingLeft=8;spacingRight=8;" vertex="1" parent="1">
          <mxGeometry x="330" y="30" width="300" height="50" as="geometry" />
        </mxCell>
        <mxCell id="j6DFhhQBlQ9trEZJzmF2-2" value="1. Vue (pages internet) " style="rounded=0;whiteSpace=wrap;html=1;align=center;fontFamily=Verdana;spacingLeft=8;spacingRight=8;" vertex="1" parent="1">
          <mxGeometry x="45" y="130" width="120" height="60" as="geometry" />
        </mxCell>
        <mxCell id="j6DFhhQBlQ9trEZJzmF2-3" value="2. Utilisateur " style="rounded=0;whiteSpace=wrap;html=1;align=center;fontFamily=Verdana;spacingLeft=8;spacingRight=8;" vertex="1" parent="1">
          <mxGeometry x="285" y="130" width="120" height="60" as="geometry" />
        </mxCell>
        <mxCell id="j6DFhhQBlQ9trEZJzmF2-5" value="3. Panier " style="rounded=0;whiteSpace=wrap;html=1;align=center;fontFamily=Verdana;spacingLeft=8;spacingRight=8;" vertex="1" parent="1">
          <mxGeometry x="470" y="130" width="120" height="60" as="geometry" />
        </mxCell>
        <mxCell id="j6DFhhQBlQ9trEZJzmF2-6" value="4. Paiement" style="rounded=0;whiteSpace=wrap;html=1;align=center;fontFamily=Verdana;spacingLeft=8;spacingRight=8;" vertex="1" parent="1">
          <mxGeometry x="680" y="130" width="120" height="60" as="geometry" />
        </mxCell>
        <mxCell id="j6DFhhQBlQ9trEZJzmF2-7" value="5. Billet" style="rounded=0;whiteSpace=wrap;html=1;align=center;fontFamily=Verdana;spacingLeft=8;spacingRight=8;" vertex="1" parent="1">
          <mxGeometry x="880" y="130" width="120" height="60" as="geometry" />
        </mxCell>
        <mxCell id="j6DFhhQBlQ9trEZJzmF2-8" value="&lt;div&gt;&lt;br&gt;&lt;/div&gt;&lt;div&gt;1.1 Page Accueil&lt;/div&gt;&lt;div&gt;&amp;nbsp;&lt;br&gt;&lt;/div&gt;&lt;div&gt;&amp;nbsp;&lt;span style=&quot;white-space: pre;&quot;&gt;&#x9;&lt;/span&gt;1.1.1 Afficher les sports disponibles sous forme de carte &lt;br&gt;&lt;/div&gt;&lt;div&gt;&lt;span style=&quot;white-space: pre;&quot;&gt;&#x9;&lt;/span&gt;1.1.2 clic sur la carte affiche page épreuves (article)&lt;/div&gt;&lt;div&gt;&lt;span style=&quot;white-space: pre;&quot;&gt;&#x9;&lt;/span&gt;1.1.3 créer bandeau supérieur (titre, menu navigation)&lt;/div&gt;&lt;div&gt;&lt;span style=&quot;white-space: pre;&quot;&gt;&#x9;&lt;/span&gt;1.1.4 Créer bandeau inférieur (crédits, FAQ, contact)&lt;br&gt;&lt;/div&gt;" style="rounded=1;whiteSpace=wrap;html=1;align=left;fontFamily=Verdana;verticalAlign=top;spacingLeft=8;spacingRight=8;" vertex="1" parent="1">
          <mxGeometry x="10" y="210" width="190" height="240" as="geometry" />
        </mxCell>
        <mxCell id="j6DFhhQBlQ9trEZJzmF2-9" value="&lt;div&gt;1.2 Page article (épreuves)&lt;/div&gt;&lt;div&gt;&lt;br&gt;&lt;/div&gt;&lt;div&gt;&lt;span style=&quot;white-space: pre;&quot;&gt;&#x9;&lt;/span&gt;1.2.1 Afficher le sport choisi &lt;br&gt;&lt;/div&gt;&lt;div&gt;&lt;span style=&quot;white-space: pre;&quot;&gt;&#x9;&lt;/span&gt;1.2.2 Afficher dates épreuves disponibles sous forme de bouton radio&lt;/div&gt;&lt;div&gt;&lt;span style=&quot;white-space: pre;&quot;&gt;&#x9;&lt;/span&gt;1.2.3 Afficher offres disponibles solo, duo et famille à sélectionner par bouton radio&lt;/div&gt;&lt;div&gt;&lt;span style=&quot;white-space: pre;&quot;&gt;&#x9;&lt;/span&gt;1.2.4 Ajouter au panier la sélection&lt;br&gt;&lt;/div&gt;" style="rounded=1;whiteSpace=wrap;html=1;align=left;fontFamily=Verdana;spacingLeft=8;spacingRight=8;" vertex="1" parent="1">
          <mxGeometry x="10" y="480" width="190" height="230" as="geometry" />
        </mxCell>
        <mxCell id="j6DFhhQBlQ9trEZJzmF2-10" value="&lt;div&gt;1.3 Page connexion &lt;br&gt;&lt;/div&gt;&lt;div&gt;&lt;br&gt;&lt;/div&gt;&lt;div&gt;1.3.1 Afficher formulaire se connecter et formulaire créer un compte avec les champs nom, prénom, email&lt;br&gt;&lt;/div&gt;" style="rounded=1;whiteSpace=wrap;html=1;align=left;fontFamily=Verdana;spacingLeft=8;spacingRight=8;verticalAlign=top;" vertex="1" parent="1">
          <mxGeometry x="10" y="740" width="191" height="120" as="geometry" />
        </mxCell>
        <mxCell id="j6DFhhQBlQ9trEZJzmF2-11" value="&lt;div&gt;1.4 Page utilisateur &lt;br&gt;&lt;/div&gt;&lt;div&gt;&lt;br&gt;&lt;/div&gt;&lt;div&gt;&lt;span style=&quot;white-space: pre;&quot;&gt;&#x9;&lt;/span&gt;1.4.1 Affiche les données utilisateur&lt;/div&gt;&lt;div&gt;&lt;span style=&quot;white-space: pre;&quot;&gt;&#x9;&lt;/span&gt;1.4.2 Affiche les billets réservés&lt;/div&gt;&lt;div&gt;&lt;span style=&quot;white-space: pre;&quot;&gt;&#x9;&lt;/span&gt;1.4.3 Au clic sur un billet, le QRCode s&#39;affiche en grand &lt;br&gt;&lt;/div&gt;" style="rounded=1;whiteSpace=wrap;html=1;align=left;fontFamily=Verdana;spacingLeft=8;spacingRight=8;" vertex="1" parent="1">
          <mxGeometry x="10" y="910" width="190" height="160" as="geometry" />
        </mxCell>
        <mxCell id="j6DFhhQBlQ9trEZJzmF2-12" value="&lt;div&gt;1.5 Page paiement&lt;/div&gt;&lt;div&gt;&lt;br&gt;&lt;/div&gt;&lt;div&gt;&lt;span style=&quot;white-space: pre;&quot;&gt;&#x9;&lt;/span&gt;1.5.1 Affiche le formulaire pour entrer les données bancaire &lt;br&gt;&lt;/div&gt;&lt;div&gt;&lt;span style=&quot;white-space: pre;&quot;&gt;&#x9;&lt;/span&gt;1.5.1 Bouton pour soumettre le paiement&lt;br&gt;&lt;/div&gt;" style="rounded=1;whiteSpace=wrap;html=1;align=left;fontFamily=Verdana;spacingLeft=8;spacingRight=8;verticalAlign=top;" vertex="1" parent="1">
          <mxGeometry x="10" y="1109" width="190" height="141" as="geometry" />
        </mxCell>
        <mxCell id="j6DFhhQBlQ9trEZJzmF2-13" value="&lt;div&gt;&lt;br&gt;&lt;/div&gt;&lt;div&gt;2.1 Créer un compte&lt;/div&gt;&lt;div&gt;&lt;br&gt;&lt;/div&gt;&lt;div&gt;&lt;span style=&quot;white-space: pre;&quot;&gt;&#x9;&lt;/span&gt;2.1.1 vérifier que les données issues du formulaire correspondent aux types attendus &lt;br&gt;&lt;/div&gt;&lt;div&gt;&lt;span style=&quot;white-space: pre;&quot;&gt;&#x9;&lt;/span&gt;2.1.2 Vérifier la solidité du mot de passe &lt;br&gt;&lt;/div&gt;&lt;div&gt;&lt;span style=&quot;white-space: pre;&quot;&gt;&#x9;&lt;/span&gt;2.1.3 Hasher le mot de passe &lt;br&gt;&lt;/div&gt;&lt;div&gt;&lt;span style=&quot;white-space: pre;&quot;&gt;&#x9;&lt;/span&gt;2.1.4 Stocker les données dans un objet visitor&lt;/div&gt;&lt;div&gt;&amp;nbsp;&lt;br&gt; &lt;/div&gt;" style="rounded=1;html=1;align=left;fontFamily=Verdana;spacingLeft=8;spacingRight=8;verticalAlign=top;whiteSpace=wrap;" vertex="1" parent="1">
          <mxGeometry x="250" y="210" width="190" height="230" as="geometry" />
        </mxCell>
        <mxCell id="j6DFhhQBlQ9trEZJzmF2-14" value="&lt;div&gt;&lt;br&gt;&lt;/div&gt;&lt;div&gt;2.2 Vérifier existence visitor&lt;br&gt;&lt;/div&gt;&lt;div&gt;&lt;br&gt;&lt;/div&gt;&lt;div&gt;&lt;span style=&quot;white-space: pre;&quot;&gt;&#x9;&lt;/span&gt;2.2.1 Comparer les propriétés de l&#39;objet visitor avec la table user&lt;/div&gt;&lt;div&gt;&lt;span style=&quot;white-space: pre;&quot;&gt;&#x9;&lt;/span&gt;2.2.2 si user existe déjà retourner message &quot;utilisateur existe déjà Veuillez vous connecter&quot;&lt;/div&gt;&lt;div&gt;&lt;br&gt;&lt;/div&gt;&lt;div&gt;&lt;br&gt;&lt;/div&gt;" style="rounded=1;whiteSpace=wrap;html=1;align=left;fontFamily=Verdana;spacingLeft=8;spacingRight=8;verticalAlign=top;" vertex="1" parent="1">
          <mxGeometry x="250" y="480" width="190" height="190" as="geometry" />
        </mxCell>
        <mxCell id="j6DFhhQBlQ9trEZJzmF2-15" value="&lt;div&gt;&lt;br&gt;&lt;/div&gt;&lt;div&gt;2.3 Valider double authentification par email&lt;/div&gt;&lt;div&gt;&lt;br&gt;&lt;/div&gt;&lt;div&gt;&lt;span style=&quot;white-space: pre;&quot;&gt;&#x9;&lt;/span&gt;2.3.1 générer un code de validation de 8 chiffres &lt;br&gt;&lt;/div&gt;&lt;div&gt;&lt;span style=&quot;white-space: pre;&quot;&gt;&#x9;&lt;/span&gt;2.3.2 Afficher champs pour saisir la valeur du code reçu &lt;br&gt;&lt;/div&gt;&lt;div&gt;&lt;span style=&quot;white-space: pre;&quot;&gt;&#x9;&lt;/span&gt;2.3.3 comparer la valeur saisie par utilisateur et le code envoyé &lt;br&gt;&lt;/div&gt;&lt;div&gt;&lt;span style=&quot;white-space: pre;&quot;&gt;&#x9;&lt;/span&gt;2.3.4 si code faux afficher bouton envoyer un nouveau code et bouton création de compte&lt;/div&gt;&lt;div&gt;&lt;span style=&quot;white-space: pre;&quot;&gt;&#x9;&lt;/span&gt;2.3.5 si code juste la propriété validUser passe à True&lt;/div&gt;&lt;div&gt;&lt;span style=&quot;white-space: pre;&quot;&gt;&#x9;&lt;/span&gt;2.3.6 Afficher page panier &lt;br&gt;&lt;/div&gt;" style="rounded=1;whiteSpace=wrap;html=1;align=left;fontFamily=Verdana;spacingLeft=8;spacingRight=8;verticalAlign=top;" vertex="1" parent="1">
          <mxGeometry x="250" y="710" width="190" height="330" as="geometry" />
        </mxCell>
        <mxCell id="j6DFhhQBlQ9trEZJzmF2-16" value="&lt;div&gt;2.4. Se connecter &lt;br&gt;&lt;/div&gt;&lt;div&gt;&lt;span style=&quot;white-space: pre;&quot;&gt;&#x9;&lt;/span&gt;&lt;/div&gt;&lt;div&gt;&lt;span style=&quot;white-space: pre;&quot;&gt;&#x9;&lt;/span&gt;2.4.1 Afficher formulaire connexion (email et mot de passe)&lt;/div&gt;&lt;div&gt;&lt;span style=&quot;white-space: pre;&quot;&gt;&#x9;&lt;/span&gt;2.4.2 Afficher bouton connexion &lt;br&gt;&lt;/div&gt;&lt;div&gt;&lt;span style=&quot;white-space: pre;&quot;&gt;&#x9;&lt;/span&gt;2.4.3 Hasher le mot de passe&amp;nbsp;&lt;/div&gt;&lt;div&gt;&lt;span style=&quot;white-space: pre;&quot;&gt;&#x9;&lt;/span&gt;2.4.4 Stocker les données dans un objet visitor&amp;nbsp;&lt;/div&gt;&lt;div&gt;&lt;span style=&quot;white-space: pre;&quot;&gt;&#x9;&lt;/span&gt;2.4.5 Vérifier si visitor existe dans la table user&lt;/div&gt;&lt;div&gt;&lt;span style=&quot;white-space: pre;&quot;&gt;&#x9;&lt;/span&gt;2.4.6 Si utilisateur existe copier les donnée de visitor dans objet user et afficher page panier &amp;nbsp; &lt;br&gt;&lt;/div&gt;" style="rounded=1;whiteSpace=wrap;html=1;align=left;fontFamily=Verdana;spacingLeft=8;spacingRight=8;" vertex="1" parent="1">
          <mxGeometry x="250" y="1220" width="190" height="310" as="geometry" />
        </mxCell>
        <mxCell id="j6DFhhQBlQ9trEZJzmF2-17" value="&lt;div&gt;2.5 Générer clé utilisateur&lt;/div&gt;&lt;div&gt;&lt;br&gt;&lt;/div&gt;&lt;div&gt;&lt;span style=&quot;white-space: pre;&quot;&gt;&#x9;&lt;/span&gt;2.5.1 Générer une clé unique utilisateur&lt;/div&gt;&lt;div&gt;&lt;span style=&quot;white-space: pre;&quot;&gt;&#x9;&lt;/span&gt;2.5.2 Implémenter objet user avec la userKey&lt;br&gt; &lt;/div&gt;" style="rounded=1;whiteSpace=wrap;html=1;align=left;fontFamily=Verdana;spacingLeft=8;spacingRight=8;verticalAlign=top;" vertex="1" parent="1">
          <mxGeometry x="250" y="1070" width="190" height="120" as="geometry" />
        </mxCell>
        <mxCell id="j6DFhhQBlQ9trEZJzmF2-18" value="&lt;div&gt;&lt;br&gt;&lt;/div&gt;&lt;div&gt;2.6 Implémenter table user&lt;/div&gt;&lt;div&gt;&lt;br&gt;&lt;/div&gt;&lt;div&gt;&lt;span style=&quot;white-space: pre;&quot;&gt;&#x9;&lt;/span&gt;2.6.1 Vérifier que la propriété valid de user est True &lt;br&gt;&lt;/div&gt;&lt;div&gt;&lt;span style=&quot;white-space: pre;&quot;&gt;&#x9;&lt;/span&gt;2.6.2 ajouter&amp;nbsp; les données de user dans la table user &lt;br&gt;&lt;/div&gt;&lt;div&gt;&lt;br&gt;&lt;/div&gt;" style="rounded=1;whiteSpace=wrap;html=1;align=left;fontFamily=Verdana;spacingLeft=8;spacingRight=8;verticalAlign=top;" vertex="1" parent="1">
          <mxGeometry x="250" y="1580" width="190" height="160" as="geometry" />
        </mxCell>
        <mxCell id="j6DFhhQBlQ9trEZJzmF2-19" value="3.1 créer panier " style="rounded=1;whiteSpace=wrap;html=1;align=left;fontFamily=Verdana;spacingLeft=8;spacingRight=8;" vertex="1" parent="1">
          <mxGeometry x="470" y="210" width="120" height="60" as="geometry" />
        </mxCell>
        <mxCell id="j6DFhhQBlQ9trEZJzmF2-20" value="3.2 Ajouter au panier " style="rounded=1;whiteSpace=wrap;html=1;align=left;fontFamily=Verdana;spacingLeft=8;spacingRight=8;" vertex="1" parent="1">
          <mxGeometry x="470" y="300" width="120" height="60" as="geometry" />
        </mxCell>
        <mxCell id="j6DFhhQBlQ9trEZJzmF2-21" value="3.3 Calculer total dû" style="rounded=1;whiteSpace=wrap;html=1;align=left;fontFamily=Verdana;spacingLeft=8;spacingRight=8;" vertex="1" parent="1">
          <mxGeometry x="470" y="390" width="120" height="60" as="geometry" />
        </mxCell>
        <mxCell id="j6DFhhQBlQ9trEZJzmF2-22" value="3.4 Passer au paiement" style="rounded=1;whiteSpace=wrap;html=1;align=left;fontFamily=Verdana;spacingLeft=8;spacingRight=8;" vertex="1" parent="1">
          <mxGeometry x="470" y="480" width="120" height="60" as="geometry" />
        </mxCell>
        <mxCell id="j6DFhhQBlQ9trEZJzmF2-23" value="&lt;div align=&quot;left&quot;&gt;4.1 Entrer informations paiement&lt;br&gt;&lt;/div&gt;" style="rounded=1;whiteSpace=wrap;html=1;spacingLeft=8;spacingRight=8;" vertex="1" parent="1">
          <mxGeometry x="680" y="210" width="120" height="60" as="geometry" />
        </mxCell>
        <mxCell id="j6DFhhQBlQ9trEZJzmF2-24" value="4.2 Effectuer paiement (simuler)" style="rounded=1;whiteSpace=wrap;html=1;align=left;spacingLeft=8;spacingRight=8;" vertex="1" parent="1">
          <mxGeometry x="680" y="300" width="120" height="60" as="geometry" />
        </mxCell>
        <mxCell id="j6DFhhQBlQ9trEZJzmF2-25" value="&lt;div align=&quot;left&quot;&gt;4.3 Générer clé paiement&lt;br&gt;&lt;/div&gt;" style="rounded=1;whiteSpace=wrap;html=1;spacingLeft=8;spacingRight=8;" vertex="1" parent="1">
          <mxGeometry x="680" y="390" width="120" height="60" as="geometry" />
        </mxCell>
        <mxCell id="j6DFhhQBlQ9trEZJzmF2-26" value="&lt;div align=&quot;left&quot;&gt;4.4 Implémenter table billets vendus &lt;/div&gt;" style="rounded=1;whiteSpace=wrap;html=1;align=left;spacingLeft=8;spacingRight=8;" vertex="1" parent="1">
          <mxGeometry x="680" y="480" width="120" height="60" as="geometry" />
        </mxCell>
        <mxCell id="j6DFhhQBlQ9trEZJzmF2-27" value="&lt;div align=&quot;left&quot;&gt;5.1 Créer Billet&lt;br&gt;&lt;/div&gt;" style="rounded=1;whiteSpace=wrap;html=1;align=left;spacingLeft=8;spacingRight=8;" vertex="1" parent="1">
          <mxGeometry x="880" y="210" width="120" height="60" as="geometry" />
        </mxCell>
        <mxCell id="j6DFhhQBlQ9trEZJzmF2-28" value="&lt;div&gt;5.2 Créer QRCode&lt;br&gt;&lt;/div&gt;" style="rounded=1;whiteSpace=wrap;html=1;align=left;spacingLeft=8;spacingRight=8;" vertex="1" parent="1">
          <mxGeometry x="880" y="300" width="120" height="60" as="geometry" />
        </mxCell>
        <mxCell id="j6DFhhQBlQ9trEZJzmF2-29" value="5.3 Implémenter table user-Tickets" style="rounded=1;whiteSpace=wrap;html=1;spacingLeft=8;spacingRight=8;" vertex="1" parent="1">
          <mxGeometry x="880" y="390" width="120" height="60" as="geometry" />
        </mxCell>
      </root>
    </mxGraphModel>
  </diagram>
</mxfile>
